<?xml version="1.0"?><svg width="793.7" height="1122.52" xmlns="http://www.w3.org/2000/svg">
 <title>Number one blue</title>
 <metadata id="metadata4">image/svg+xml</metadata>
 <g>
  <title>Layer 1</title>
  <path d="m127.545998,382.644989c0,0 -36.758896,26.256012 -26.255997,65.640015c10.501999,39.38501 39.383995,34.132996 39.383995,49.886993c0,15.754028 -21.004997,31.507996 -21.004997,31.507996c0,0 36.758995,-7.877014 36.758995,-28.881989c0,-21.005005 31.507004,-2.626007 31.507004,-2.626007c0,0 -21.005005,-21.005005 -42.009995,-26.256012c-21.005005,-5.250977 -28.882004,-26.255981 -26.256004,-47.260986c2.625999,-21.005005 23.631004,-21.005005 23.631004,-21.005005l-15.754005,-21.005005z" fill-rule="evenodd" fill="#00ff00" id="path3159"/>
  <path d="m35.528297,258.002136l135.479179,176.749603l135.479431,-112.26059l-24.192505,489.64563l-183.864883,-19.108032l0,205.411194l546.756454,0l-33.870056,-229.296997l-149.995361,19.108093l91.932678,-654.451874l-188.703705,-62.101357l-329.021137,186.304329l-0.000095,0z" stroke-width="6" stroke-miterlimit="4" stroke="#ffff00" fill-rule="evenodd" fill="#ffe100" id="path2383"/>
  <g id="svg_1"/>
  <g id="svg_7">
   <path d="m399.859985,158.838196c-0.001984,37.702805 -30.565979,68.264801 -68.268982,68.263809c-37.701996,-0.001007 -68.265015,-30.565994 -68.264008,-68.268402c0.001007,-37.702408 30.56601,-68.265198 68.269012,-68.264008c37.701996,0.001305 68.264984,30.566208 68.263977,68.2686" stroke-miterlimit="4" stroke-dashoffset="0" stroke="#000000" fill="#ffffff" id="path3155"/>
   <path d="m365.088013,159.271759c-0.00116,19.324814 -16.002747,34.990372 -35.742249,34.989243c-19.738373,0 -35.739929,-15.666702 -35.73877,-34.991638c0,-19.324707 16.002747,-34.989929 35.741089,-34.989365c19.739471,0.000687 35.739929,15.666931 35.739929,34.99176" stroke-width="0" stroke-miterlimit="4" stroke-dashoffset="0" stroke="#3f007f" fill="#00ff00" id="path3183"/>
   <path d="m342.201996,158.270996c0,6.961609 -5.755981,12.605011 -12.855011,12.604797c-7.099976,-0.000275 -12.85498,-5.643951 -12.85498,-12.605591c0,-6.961624 5.755981,-12.604996 12.855988,-12.604706c7.098999,0.000107 12.855011,5.64386 12.854004,12.605499" fill="#222b00" id="path3185"/>
  </g>
  <g id="svg_8">
   <path d="m530.370972,239.956757c-0.002014,37.702789 -30.56601,68.264801 -68.269012,68.263824c-37.701996,-0.001038 -68.265015,-30.56604 -68.264008,-68.268417c0.001007,-37.702408 30.56601,-68.265213 68.269012,-68.264008c37.701996,0.001297 68.264984,30.566193 68.264008,68.2686" stroke-miterlimit="4" stroke-dashoffset="0" stroke="#000000" fill="#ffffff" id="svg_4"/>
   <path d="m495.598969,240.39035c-0.001007,19.325226 -16.003021,34.990204 -35.742004,34.989227c-19.739014,0 -35.740021,-15.667023 -35.739014,-34.991623c0,-19.324692 16.002991,-34.990005 35.740997,-34.989395c19.740021,0.000702 35.740021,15.666901 35.740021,34.991791" stroke-width="0" stroke-miterlimit="4" stroke-dashoffset="0" stroke="#3f007f" fill="#00ff00" id="svg_5"/>
   <path d="m472.212952,240.639557c0,6.547394 -5.755981,11.85495 -12.855011,11.854797c-7.099976,-0.000275 -12.85498,-5.308121 -12.85498,-11.855499c0,-6.547531 5.755981,-11.855072 12.855988,-11.854797c7.098999,0.000153 12.855011,5.308121 12.854004,11.855499" fill="#222b00" id="svg_6"/>
  </g>
  <ellipse cy="333.48" cx="152.85" stroke-width="null" stroke-linejoin="null" stroke-linecap="null" stroke-dasharray="null" fill="#00ff00" id="svg_9"/>
  <g id="svg_2"/>
  <path d="m-641.150024,345.480011l157.150024,-139.480011l-157.150024,139.480011z" stroke-width="null" stroke-linejoin="null" stroke-linecap="null" stroke-dasharray="null" fill="#00ff00" id="svg_23"/>
 </g>
</svg>